#N canvas 271 90 470 525 12;
#X obj 41 350 open303filter~;
#X obj 139 311 hsl 162 19 0 1 0 1 empty empty resonance\ (0-1) -2 -10 0 12 #fcfcfc #000000 #000000 2700 1;
#X obj 57 120 bng 19 250 50 0 empty empty empty 0 -10 0 12 #fcfcfc #000000 #000000;
#X text 83 120 reset;
#X obj 41 409 output~;
#X obj 41 32 phasor~ 32.7032;
#X obj 41 61 expr~ $v1 * 2 - 1;
#X text 93 244 cutoff (200-20000);
#X obj 88 222 expr~ ($v1 * 0.5 + 0.5) * (20000 - 200) + 200;
#X obj 88 193 osc~ 0.25;
#X text 159 333 can also be a signal;
#X connect 0 0 4 0;
#X connect 1 0 0 2;
#X connect 2 0 0 0;
#X connect 5 0 6 0;
#X connect 6 0 0 0;
#X connect 8 0 0 1;
#X connect 9 0 8 0;
