#N canvas 644 28 766 812 12;
#X obj 20 565 open303filter~;
#X obj 118 536 hsl 162 19 0 1 0 1 empty empty resonance\ (0-1) -2 -10 0 12 #fcfcfc #000000 #000000 4200 1;
#X obj 20 21 tgl 19 1 empty empty empty 0 -10 0 12 #fcfcfc #000000 #000000 1 1;
#X obj 67 400 *~;
#X obj 187 400 hsl 162 19 0 18800 0 1 empty empty cutoff\ mod\ amount -2 -10 0 12 #fcfcfc #000000 #000000 913 1;
#X floatatom 102 401 10 0 0 0 - - - 0;
#X obj 20 730 else/out~;
#X obj 187 449 hsl 162 19 200 8000 0 1 empty empty base\ cutoff -2 -10 0 12 #fcfcfc #000000 #000000 0 1;
#X floatatom 102 450 10 0 0 0 - - - 0;
#X obj 67 449 +~;
#X obj 20 176 mtof~;
#X obj 20 205 else/glide~;
#X obj 67 478 clip~ 200 20000;
#X obj 20 147 else/list.seq -loop;
#X obj 30 118 r \$0-notes;
#X obj 555 174 s \$0-notes;
#X obj 190 147 else/list.seq -loop;
#X obj 268 323 hsl 100 19 50 500 0 1 empty empty filter\ env\ decay -2 -10 0 12 #fcfcfc #000000 #000000 1100 1;
#X floatatom 211 324 6 0 0 0 - - - 0;
#X obj 360 147 else/list.seq -loop;
#X obj 20 682 *~;
#X obj 312 625 else/adsr~ -imp 1 0 1, f 22;
#X obj 360 176 sel 0;
#X obj 20 79 t b b b, f 49;
#X obj 392 205 t b f, f 6;
#X obj 431 566 t b f;
#X obj 545 54 bng 19 250 50 0 empty empty empty 0 -10 0 12 #fcfcfc #000000 #000000;
#X obj 545 25 loadbang;
#X obj 128 718 else/scope~ 141 77 2 3 256 -1 1 0 0 1 0 30 30 30 255 255 255 223 223 223 0 empty;
#X obj 463 596 *;
#X obj 555 596 hsl 100 19 50 500 0 1 empty empty empty -2 -10 0 12 #fcfcfc #000000 #000000 3384 1;
#X floatatom 498 597 6 0 0 0 - - - 0;
#X obj 67 352 else/adsr~ -imp 3 0 1;
#X obj 370 118 r \$0-env-time-mults;
#X obj 555 414 s \$0-env-time-mults;
#X msg 545 343 2 0 2 0 2 0 1 2 0 2 0 1 2 0 2 0 1 2 0 1 2 0 1 2 0 1 2 0 1 3 0 0, f 16;
#X msg 545 103 38 38 38 38 38 38 38 38 38 39 39 39 39 39 38 38 46 49 49 45 46 46 43 45 45 42 43 43 39 42 42 42, f 25;
#X obj 555 294 s \$0-glides;
#X obj 200 118 r \$0-glides;
#X msg 545 223 0 0 0 0 0 0 0 0 0 0 0 0 0 0 0 0 0 1 0 0 1 0 0 1 0 0 1 0 0 1 1 0, f 16;
#X obj 20 254 else/bl.saw~;
#X obj 20 50 metro 125;
#X obj 190 176 * 60;
#X connect 0 0 20 0;
#X connect 1 0 0 2;
#X connect 2 0 41 0;
#X connect 3 0 9 0;
#X connect 4 0 5 0;
#X connect 5 0 3 1;
#X connect 7 0 8 0;
#X connect 8 0 9 1;
#X connect 9 0 12 0;
#X connect 10 0 11 0;
#X connect 11 0 40 0;
#X connect 12 0 0 1;
#X connect 13 0 10 0;
#X connect 14 0 13 0;
#X connect 16 0 42 0;
#X connect 17 0 18 0;
#X connect 18 0 32 5;
#X connect 19 0 22 0;
#X connect 20 0 6 0;
#X connect 20 0 28 0;
#X connect 21 0 20 1;
#X connect 22 1 24 0;
#X connect 23 0 13 0;
#X connect 23 1 16 0;
#X connect 23 2 19 0;
#X connect 24 0 32 0;
#X connect 24 1 25 0;
#X connect 25 0 21 0;
#X connect 25 1 29 0;
#X connect 26 0 35 0;
#X connect 26 0 39 0;
#X connect 26 0 36 0;
#X connect 27 0 26 0;
#X connect 29 0 21 5;
#X connect 30 0 31 0;
#X connect 31 0 29 1;
#X connect 32 0 3 0;
#X connect 33 0 19 0;
#X connect 35 0 34 0;
#X connect 36 0 15 0;
#X connect 38 0 16 0;
#X connect 39 0 37 0;
#X connect 40 0 0 0;
#X connect 41 0 23 0;
#X connect 42 0 11 1;
